<svg xmlns="http://www.w3.org/2000/svg" width="158.29" height="104.208" viewBox="0 0 158.29 104.208">
  <g id="Group_700" data-name="Group 700" transform="translate(-351.483 -448.89)">
    <path id="Path_370" data-name="Path 370" d="M517.9,615.658c1.344-1.868,3.848-3.064,5.651-4.581a27.5,27.5,0,0,0,7.44-9.267,65.083,65.083,0,0,1,10.884-13.438c3.784-3.278,10.193-5.467,11.106-6.588a10.957,10.957,0,0,1,4.456-4.21c2.1-.907,3.721-.2,5.426,1.115.846.372,1.344-.086,2.717.417a4.334,4.334,0,0,0-2.2,2.4c-.326,1.5-.379,3.386-.707,4.884a8.6,8.6,0,0,0-.176,4.76c.373.483,6.868,6.062,7.535,6.788,6.592,7.172,16.749,9.348,17.439,11.009-1.608,1.064-5.56-.983-7.164-1.524,1.866,1.88,4.7,3.014,6.563,4.892a13.226,13.226,0,0,1-7.853-3.184c.64.78,4.478,4.189,4.9,5.046-3,.417-5.052-1.436-7.078-3.368.37,1.018,2.343,3.11,1.429,4.232-.881.873-3.33-1.861-4.188-2.089-.158.544,1.158,1.617.414,2.071a7.312,7.312,0,0,1-2.828-1.316c-.149.5.877,2.1.152,1.953-.517-.1-3.326-1.089-3.525-1.484.9,2.891-2.983,1.386-3.314.352.384,1.2-2.427.282-2.719.01-.448-.419-.669-.9-1.29-1.137-.694-.267-1.521.975-2.618.367-.991-.806-1.178-1.29-1.874-1.346a2.564,2.564,0,0,0-.858.425c-.916.129-1.712-.539-2.582-.387-1.608.282-2.3-1.816-2.811-1.484a3.233,3.233,0,0,1-2,.686c-.72-.058-1.23-.95-1.928-1.068-.4-.068-.785,0-1.194-.092-.553-.122-1.9-.719-1.681-1.489-.512-.313-1.168.131-1.8-.166a1.918,1.918,0,0,1-.977-2.2c-.569-.233-6.263-.929-7.337.285-1.17,1.322-2.282,2.7-3.469,4-1.987,2.186-3.548,4.7-5.32,6.775-1.182,1.388-3.488,2.931-2.675-.009C520.031,618.341,515.7,618.486,517.9,615.658Z" transform="translate(-85.676 -66.283)" fill="#ced0d2"/>
    <path id="Path_371" data-name="Path 371" d="M351.483,550.445c2.191-.515,4.923.117,7.13.29,2.982.233,6.2.708,9.177.251,5.135-.593,10.465-.432,15.125-2.768a19.577,19.577,0,0,0,5.3-4.514c.8-1.091.678-2.963.83-4.3a6.253,6.253,0,0,1,.889-2.726,5.869,5.869,0,0,0,.812-1.214c.042-.124.274-1.329.153-1.359.9.231,1.345,1.136,2.281,1.141,2.006.013,3.387,1.23,4.409,2.888.513.834.882,2.911,2.057,3.236s14.471-3.592,17.144-4.806c3.359-1.3,12.546-5.767,13.918-5.947.771,2.115-2.291,3.735-3.386,4.453.629.411,2.377.386,1.909,1.514-.429.8-2.242.418-2.82,1.028,1.148.3,1.366,1.339.9,2.467-.859,1.591-2.173,1.271-3.564,1.618.276.538.79,1.948.38,2.577-.617.943-1.725.309-2.321,1.084-.577.61-.025,1.686-.6,2.3-.557.442-1.891.289-2.6.547.551,1.077-.116,1-.672,1.444-.206.314-.52.108-.911.57-.2.314.072.853-.153,1.334-.449.961-.872.237-1.43.68-.792.629-.463,1.251-1.729,1.369-.4.038-1.459.038-1.827-.373a1.729,1.729,0,0,1-.233,1.411c-1,.78-4.314-.849-5.294-1.254-.8-.429-1.553-1.191-2-.23-.6.776.471,3.264.708,4.135a45.572,45.572,0,0,0,2.378,5.1,10.375,10.375,0,0,0,4.946,4.464c1.235.595,2.5,1.133,3.717,1.753,2.1,1.061.6,1.774-.957,1.679.438.293.421,1.04-.161,1.627-.311.314-.855-.177-1.3-.241,1.3,1.5-3.6.586-3.9.543a8.872,8.872,0,0,1-.271,2.139c-.6.777-1.878,1.643-2.487,1.067s-.732-2.449-1.3-3.359-2.361-4.438-3.1-5.366-3.081-.769-4.2-1.382c-3.133-1.711-3.982-3.836-6.143-5.6-.577.609-.525,1.629-1.121,2.4s-1.225.365-1.949.79c-.743.59-.505,1.462-1.563,1.847-.891.4-1.629-.524-2.315-.434-.852.07-1.3,1.032-2.358,1.417-1.577.5-3.335-.383-5-.574a9.219,9.219,0,0,1-3.5-.647c-1.168-.6-2.044.035-3.312-.3-.433-.117-.608-.063-.943-.419-.279-.3-.223-.707-.6-.889-.482-.233-1.368.153-1.9.128-1.5-.076-1.373-.5-1.292-1.839-1.084.219-2.47,1.057-3.744.591-1.187-.436-.924-1.238-.921-2.243-1.052-.193-2.591-.011-3.388-.615-.523-.4-1.531-1.834-.54-2.241-.893-.752-3.637-.334-3.707-2.073-.034-.851.516-.992,1.17-.942a5.445,5.445,0,0,1-3.09-2.109,2.006,2.006,0,0,1,.831-.078C352.267,551.3,351.543,550.992,351.483,550.445Z" transform="translate(0 -42.231)" fill="#ced0d2"/>
    <path id="Path_372" data-name="Path 372" d="M615.314,473.71a12.221,12.221,0,0,0-3.824-2.73c-1.59-.741-4-.351-5.735-.328a10.766,10.766,0,0,0,1.6-1.632,34.645,34.645,0,0,0,6.391-11.57c.477-1.529,1.717-3.206,1.557-4.876-1.607-.224-3.277,1.578-4.332,2.582a9.137,9.137,0,0,0-1.981,2.292c-.165-.849-.829-1.832-1.822-1.6-1.517.359-1.929,2.762-2.745,3.774-1.871-.978-3.433.654-3.4,2.634-1.143.066-3.81.016-4.334,1.264-.665,1.586,1.33.953-.981,2.3-.848.494-2.05,1.041-2.063,2.207-.006.449.383.711.407.909.044.371-.143.546-.29.856-1.406-1.44-2.895-2.651-4.383-4.041a27.61,27.61,0,0,0-2.723-2.287c-1.007-.6-2.082-1.107-3.131-1.632-.975-.489-4.044-2.811-4.823-3.256-.723-.412-11.929-9.341-12.609-9.687-.59,2.762,3.731,5.637,5.313,7.169-1.1.088-2.84-1.242-3.271.125-.551,1.746,2.414,2.111,3.283,2.814-.551.419-1.834.409-1.865,1.31-.033.974,1.793,1.086,2.513,1.327-.5.542-1.432.872-1.331,1.736.189,1.637,2.729,1.484,3.721,2.263a3.841,3.841,0,0,0-.333,1.758c.217.825.825.741,1.646,1-.107.673-.757,1.34-.668,2.054.128,1.018.911.637,1.755,1-.586,1.243.641.614,1.052,1.584.8,1.879,1.8,1.713,2.29,2.019.181.113.368.545.727.747.894.5.574-.029,1.36.658-2.074,1.152-4.341,4.446-6.083,7.822-1.089,1.851-8.387,6.1-10.02,8.279-.545.653-3.595,3.921-2.723,4.792a12,12,0,0,1,1.743.326c.544,0,6.059-4.467,7.475-5.229,1.348-.749,7.843-3.555,9.49-3.158a31.146,31.146,0,0,0,5.253,1.055c.03.15.07.312.126.494a2.656,2.656,0,0,0,3.381.419c.426-.319,1.07-.812,1.732-1.352.528-.1,1.09-.224,1.7-.365a37.038,37.038,0,0,0,16.142-8.125c1.316-1.079,2.958-3.126,4.266-4,1.416-.98,3.051-1.2,4.466-1.96C618.787,474.14,616.295,474.582,615.314,473.71Z" transform="translate(-109.45 0)" fill="#ced0d2"/>
  </g>
</svg>
