<svg xmlns="http://www.w3.org/2000/svg" xmlns:xlink="http://www.w3.org/1999/xlink" width="213" height="72.652" viewBox="0 0 213 72.652">
  <defs>
    <clipPath id="clip-path">
      <path id="Path_8" data-name="Path 8" d="M0-11.591H213V-78.756H0Z" transform="translate(0 78.756)" fill="none"/>
    </clipPath>
  </defs>
  <g id="Group_4656" data-name="Group 4656" transform="translate(-10710.5 279.141)">
    <g id="Group_8" data-name="Group 8" transform="translate(10710.5 -279.141)" clip-path="url(#clip-path)">
      <g id="Group" transform="translate(119.624 1.954)">
        <text id="H" transform="translate(0 38)" fill="#cfd0d2" font-size="51" font-family="SegoeUI, Segoe UI"><tspan x="0" y="0">H</tspan></text>
        <text id="ills" transform="translate(35.043 38)" fill="#cfd0d2" font-size="51" font-family="SegoeUI, Segoe UI"><tspan x="0" y="0">ills</tspan></text>
      </g>
      <g id="Group_4" data-name="Group 4" transform="translate(0 6.496)">
        <path id="Path_4" data-name="Path 4" d="M-.669-.823V14.27a33.242,33.242,0,0,0,.375,5.713,10.267,10.267,0,0,0,1.475,3.974,8.665,8.665,0,0,0,2.082,2.152c2.52,1.873,6.028,2.367,9.1,2.367,3.776,0,7.991-.931,10.166-4.328,1.794-2.8,2.066-6.78,2.066-10.022V1.387c0-.634.009-1.271.047-1.9a11.855,11.855,0,0,1,.176-1.514,3.9,3.9,0,0,1,.969-2.082,4.6,4.6,0,0,1,2.657-1.1v-.368c-.433.032-.869.052-1.3.068-.665.025-1.332.038-2,.045-.291,0-.581,0-.872,0q-1.012,0-2.024-.016c-1.071-.018-2.159-.039-3.231-.107v.363a6.076,6.076,0,0,1,3.761,1.364,4.25,4.25,0,0,1,1.01,2.226,12.756,12.756,0,0,1,.181,1.6c.039.666.049,1.336.049,2V14.662c0,6.751-1.772,12.738-9.684,12.738a7.2,7.2,0,0,1-5.015-1.607A6.9,6.9,0,0,1,7.43,22.4,20.239,20.239,0,0,1,6.9,17.313V-.823a10.562,10.562,0,0,1,.159-2.126,2.675,2.675,0,0,1,.666-1.37,2.8,2.8,0,0,1,1.423-.7,11.262,11.262,0,0,1,1.926-.214v-.352c-1.105.05-2.215.074-3.32.093q-2.264.038-4.529.036Q.939-5.46-1.352-5.5c-1.062-.018-2.129-.04-3.191-.092v.352a10.255,10.255,0,0,1,1.742.2,2.644,2.644,0,0,1,1.323.658A2.615,2.615,0,0,1-.82-3,11.408,11.408,0,0,1-.669-.823" transform="translate(4.543 5.589)" fill="#fff"/>
      </g>
      <g id="Group_5" data-name="Group 5" transform="translate(34.333 0)">
        <path id="Path_5" data-name="Path 5" d="M-4.375-.535a2.555,2.555,0,0,0-1.073-.727A3.636,3.636,0,0,0-8.008-3.572c-1.929-.377-2.9,1.024-3.627,1.66-1,.874-3.434,2.153-4.559,2.894-1.59,1.048-4.546,3.431-6.272,4.294A72.676,72.676,0,0,1-29.723,7.73l.484,0-.386.417.738-.143-.331.329L-24.056,6.8l-.005.2a12.95,12.95,0,0,1,2.806-.769c1.713.037,3.664,1.145,6.782,1.175s6.891-2.831,7.5-5.166S-5.631-.4-5.631-.4A3.9,3.9,0,0,0-4.375-.535" transform="translate(29.723 3.635)" fill="#b9bcbf"/>
      </g>
      <g id="Group_6" data-name="Group 6" transform="translate(47.82 10.709)">
        <path id="Path_6" data-name="Path 6" d="M-.057-.011l2.3,2.037A5.385,5.385,0,0,0,.708,1.858,4.356,4.356,0,0,0-.39,2.8,4.3,4.3,0,0,1,.7,2.182a7.938,7.938,0,0,1,2.065.438c.666.153,2.039.269,2.691.472.2.061.746.341.746.341a8.389,8.389,0,0,0-.983-.625,16.377,16.377,0,0,0-2.171-.461L.737-.075Z" transform="translate(0.39 0.075)" fill="#b9bcbf"/>
      </g>
      <g id="Group_7" data-name="Group 7" transform="translate(48.39 10.83)">
        <path id="Path_7" data-name="Path 7" d="M-.057-.011l2.3,2.037A5.385,5.385,0,0,0,.708,1.858,4.356,4.356,0,0,0-.39,2.8,4.3,4.3,0,0,1,.7,2.182a7.944,7.944,0,0,1,2.066.438c.665.153,2.038.269,2.69.472.2.061.746.342.746.342a8.367,8.367,0,0,0-.983-.626,16.377,16.377,0,0,0-2.171-.461L.737-.075Z" transform="translate(0.39 0.075)" fill="#b9bcbf"/>
      </g>
      <text id="nik" transform="translate(39.982 39.478)" fill="#fff" font-size="52" font-family="SegoeUI, Segoe UI"><tspan x="0" y="0">nik</tspan></text>
    </g>
    <text id="בנייני_בוטיק_מדורגים_מול_נוף_מרהיב" data-name="בנייני בוטיק מדורגים מול נוף מרהיב" transform="translate(10713.5 -225.488)" fill="#fff" font-size="14" font-family="SegoeUI, Segoe UI"><tspan x="0" y="15">בנייני בוטיק מדורגים מול נוף מרהיב</tspan></text>
    <g id="Group_2" data-name="Group 2" transform="translate(10714.27 -228.44)">
      <path id="Path_2" data-name="Path 2" d="M0,0H206.859" fill="none" stroke="#fff" stroke-width="0.363"/>
    </g>
    <g id="Group_3" data-name="Group 3" transform="translate(10714.27 -226.896)">
      <path id="Path_3" data-name="Path 3" d="M0,0H206.859" fill="none" stroke="#fff" stroke-width="0.363"/>
    </g>
  </g>
</svg>
