<svg xmlns="http://www.w3.org/2000/svg" xmlns:xlink="http://www.w3.org/1999/xlink" width="137" height="46.728" viewBox="0 0 137 46.728">
  <defs>
    <clipPath id="clip-path">
      <path id="Path_331" data-name="Path 331" d="M0-20.39H127.908V-50.671H0Z" transform="translate(0 50.671)" fill="none"/>
    </clipPath>
  </defs>
  <g id="Group_4647" data-name="Group 4647" transform="translate(-10713.019 130.141)">
    <g id="Group_668" data-name="Group 668" transform="translate(10716.397 -130.141)">
      <g id="Group_628" data-name="Group 628" transform="translate(2.793 29.251)">
        <path id="Path_323" data-name="Path 323" d="M0,0H124.323" fill="none" stroke="#2b2e34" stroke-width="0.314"/>
      </g>
      <g id="Group_636" data-name="Group 636" clip-path="url(#clip-path)">
        <g id="Group_629" data-name="Group 629" transform="translate(2.793 30.187)">
          <path id="Path_324" data-name="Path 324" d="M0,0H124.323" fill="none" stroke="#2b2e34" stroke-width="0.314"/>
        </g>
        <g id="Group_630" data-name="Group 630" transform="translate(0 3.941)">
          <path id="Path_325" data-name="Path 325" d="M-1.583-1.947V7.209a20.188,20.188,0,0,0,.228,3.466,6.226,6.226,0,0,0,.9,2.411A5.265,5.265,0,0,0,.8,14.392a9.384,9.384,0,0,0,5.519,1.435c2.292,0,4.848-.565,6.168-2.626,1.088-1.7,1.253-4.113,1.253-6.08V-.607c0-.384.005-.771.029-1.155a7.184,7.184,0,0,1,.106-.918,2.368,2.368,0,0,1,.588-1.263,2.794,2.794,0,0,1,1.612-.666v-.223c-.263.02-.528.032-.791.041-.4.016-.809.024-1.213.028l-.529,0q-.614,0-1.228-.01c-.65-.011-1.31-.023-1.96-.065v.221a3.687,3.687,0,0,1,2.282.828,2.578,2.578,0,0,1,.613,1.35,7.779,7.779,0,0,1,.11.97c.024.4.029.81.029,1.215v7.7c0,4.1-1.075,7.728-5.875,7.728A4.364,4.364,0,0,1,4.474,14.2a4.179,4.179,0,0,1-1.143-2.061,12.269,12.269,0,0,1-.319-3.084v-11a6.422,6.422,0,0,1,.1-1.29,1.622,1.622,0,0,1,.4-.831A1.7,1.7,0,0,1,4.377-4.5a6.815,6.815,0,0,1,1.168-.13v-.214c-.671.03-1.344.045-2.014.056q-1.374.024-2.748.022Q-.607-4.761-2-4.783c-.645-.011-1.292-.024-1.936-.056v.214A6.191,6.191,0,0,1-2.876-4.5a1.605,1.605,0,0,1,.8.4,1.578,1.578,0,0,1,.4.835,6.883,6.883,0,0,1,.092,1.321" transform="translate(3.933 4.839)" fill="#2b2e34"/>
        </g>
        <g id="Group_631" data-name="Group 631" transform="translate(20.83 0)">
          <path id="Path_326" data-name="Path 326" d="M-10.355-1.266a1.555,1.555,0,0,0-.651-.442,2.2,2.2,0,0,0-1.553-1.4,2.4,2.4,0,0,0-2.2,1.007c-.607.53-2.083,1.306-2.766,1.756-.965.636-2.758,2.081-3.8,2.606a44.279,44.279,0,0,1-4.4,1.489l.293,0L-25.675,4l.448-.087-.2.2,3.132-.93,0,.121a7.839,7.839,0,0,1,1.7-.467c1.04.022,2.223.694,4.115.713S-12.3,1.835-11.933.419s.815-1.6.815-1.6a2.365,2.365,0,0,0,.762-.081" transform="translate(25.734 3.147)" fill="#2b2e34"/>
        </g>
        <g id="Group_632" data-name="Group 632" transform="translate(29.012 6.497)">
          <path id="Path_327" data-name="Path 327" d="M-.136-.026l1.4,1.236a3.252,3.252,0,0,0-.932-.1,2.647,2.647,0,0,0-.666.573A2.614,2.614,0,0,1,.326,1.3a4.8,4.8,0,0,1,1.253.266c.4.093,1.237.164,1.632.286.12.038.452.207.452.207a4.985,4.985,0,0,0-.6-.379,9.874,9.874,0,0,0-1.318-.28L.346-.065Z" transform="translate(0.338 0.065)" fill="#2b2e34"/>
        </g>
        <g id="Group_633" data-name="Group 633" transform="translate(29.358 6.57)">
          <path id="Path_328" data-name="Path 328" d="M-.136-.026l1.4,1.236a3.252,3.252,0,0,0-.932-.1,2.647,2.647,0,0,0-.666.573A2.609,2.609,0,0,1,.327,1.3a4.791,4.791,0,0,1,1.253.266c.4.093,1.237.164,1.632.286.12.038.453.207.453.207a5,5,0,0,0-.6-.379,9.874,9.874,0,0,0-1.318-.28L.346-.065Z" transform="translate(0.338 0.065)" fill="#2b2e34"/>
        </g>
        <g id="Group_634" data-name="Group 634" transform="translate(21.157 2.418)">
          <path id="Path_329" data-name="Path 329" d="M0-14.942H7.731v-.769a2.459,2.459,0,0,1-1.176-.47,1.965,1.965,0,0,1-.314-1.349v-8.593a5.358,5.358,0,0,1,1.074-1.215,2.287,2.287,0,0,1,1.529-.6,1.452,1.452,0,0,1,1.49.988,4.682,4.682,0,0,1,.219,1.647v7.778a1.965,1.965,0,0,1-.314,1.349,2.464,2.464,0,0,1-1.176.47v.769h7.543v-.769a2.384,2.384,0,0,1-1.231-.423,1.868,1.868,0,0,1-.368-1.4v-7.762q0-2.681-1.137-3.748a4.509,4.509,0,0,0-3.207-1.066,4.757,4.757,0,0,0-2.627.761,6.575,6.575,0,0,0-1.952,1.921v-2.3H0v.769a2.214,2.214,0,0,1,1.372.506,2.078,2.078,0,0,1,.337,1.36v9.44a1.95,1.95,0,0,1-.415,1.466A2.374,2.374,0,0,1,0-15.71Zm19.272-19.7A2.4,2.4,0,0,0,20-32.874a2.4,2.4,0,0,0,1.764.73,2.384,2.384,0,0,0,1.749-.73,2.4,2.4,0,0,0,.729-1.764,2.4,2.4,0,0,0-.729-1.764,2.386,2.386,0,0,0-1.749-.729A2.4,2.4,0,0,0,20-36.4a2.4,2.4,0,0,0-.729,1.764m-1.412,19.7h7.653v-.769a2.464,2.464,0,0,1-1.176-.47,1.965,1.965,0,0,1-.314-1.349v-12.2H17.861v.769a2.372,2.372,0,0,1,1.3.529,2,2,0,0,1,.329,1.336v9.44a1.991,1.991,0,0,1-.47,1.521,2.377,2.377,0,0,1-1.161.423Zm8.923,0h7.652v-.769a2.082,2.082,0,0,1-1.364-.5,2.648,2.648,0,0,1-.267-1.443v-3.638l.706-.784,3.042,4.313a9.4,9.4,0,0,1,.651,1.011,1.088,1.088,0,0,1,.133.431.465.465,0,0,1-.322.439A3.04,3.04,0,0,1,36-15.71v.769h7.5v-.769a1.61,1.61,0,0,1-.455-.133,1.077,1.077,0,0,1-.36-.353l-6.21-8.547,2.494-2.524a5.973,5.973,0,0,1,2.007-1.38,7.138,7.138,0,0,1,1.568-.345v-.737H35.66v.737a6.519,6.519,0,0,1,1.466.251.621.621,0,0,1,.431.643,1.274,1.274,0,0,1-.157.51,2.646,2.646,0,0,1-.518.682l-4.077,4.093V-36.645H26.784v.768a2.7,2.7,0,0,1,1.223.518,1.9,1.9,0,0,1,.329,1.334v16.369a1.992,1.992,0,0,1-.353,1.4,2.65,2.65,0,0,1-1.2.541Z" transform="translate(0 37.131)" fill="#2b2e34"/>
        </g>
        <g id="Group_635" data-name="Group 635" transform="translate(67.284 3.486)">
          <path id="Path_330" data-name="Path 330" d="M0-14.825H8.907v-.6a4.06,4.06,0,0,1-2.292-.639,3.241,3.241,0,0,1-.531-2.246v-6.618h9.754v6.241a4.4,4.4,0,0,1-.463,2.575,4.117,4.117,0,0,1-2.36.687v.6h8.907v-.6a4.167,4.167,0,0,1-2.3-.647,3.228,3.228,0,0,1-.526-2.238V-32.593a3.3,3.3,0,0,1,.526-2.242,3.871,3.871,0,0,1,2.3-.643v-.6H13.016v.6a3.862,3.862,0,0,1,2.3.643,3.337,3.337,0,0,1,.518,2.242v6.257H6.084v-6.257a3.277,3.277,0,0,1,.531-2.242,3.88,3.88,0,0,1,2.292-.643v-.6H0v.6a3.873,3.873,0,0,1,2.3.643,3.3,3.3,0,0,1,.525,2.242v13.91a4.3,4.3,0,0,1-.47,2.567A4.244,4.244,0,0,1,0-15.421ZM25.325-35.078a1.575,1.575,0,0,0,.47,1.147,1.567,1.567,0,0,0,1.161.476,1.576,1.576,0,0,0,1.153-.476,1.561,1.561,0,0,0,.478-1.147,1.58,1.58,0,0,0-.478-1.163,1.576,1.576,0,0,0-1.153-.476,1.556,1.556,0,0,0-1.161.483,1.6,1.6,0,0,0-.47,1.155M23.3-14.825h7.621v-.439a3.216,3.216,0,0,1-1.952-.58,3.679,3.679,0,0,1-.431-2.242V-29.346a.856.856,0,0,0-.031-.235,2.043,2.043,0,0,0-.565.188q-1.082.455-3.826,1.349l-.675.219v.486q.784-.22.949-.251a1.791,1.791,0,0,1,.337-.032.948.948,0,0,1,.988.643,4.75,4.75,0,0,1,.141,1.412v7.48q0,1.835-.439,2.25a3.993,3.993,0,0,1-2.117.572Zm8.954,0h7.589v-.439a3.655,3.655,0,0,1-1.945-.51,2.353,2.353,0,0,1-.47-1.764v-18.8a2.171,2.171,0,0,0-.023-.408.121.121,0,0,0-.133-.094q-2.98.94-5.1,1.505v.518c.261-.063.479-.11.651-.141a2.665,2.665,0,0,1,.479-.047,1.263,1.263,0,0,1,1.27.659,3.993,3.993,0,0,1,.173,1.427V-17.6a2.272,2.272,0,0,1-.518,1.749,3.706,3.706,0,0,1-1.976.588Zm8.923,0h7.589v-.439a3.655,3.655,0,0,1-1.945-.51,2.353,2.353,0,0,1-.47-1.764v-18.8a2.171,2.171,0,0,0-.023-.408.121.121,0,0,0-.133-.094q-2.98.94-5.1,1.505v.518q.393-.094.651-.141a2.665,2.665,0,0,1,.479-.047,1.263,1.263,0,0,1,1.27.659,3.992,3.992,0,0,1,.173,1.427V-17.6a2.272,2.272,0,0,1-.518,1.749,3.706,3.706,0,0,1-1.976.588Zm9.942.125h.408a.925.925,0,0,1,.219-.322.465.465,0,0,1,.329-.133,9.583,9.583,0,0,1,1.409.314,8.45,8.45,0,0,0,2.129.314A5.408,5.408,0,0,0,59.239-15.7a3.789,3.789,0,0,0,1.385-3.027q0-2.415-3.34-4.234l-2.07-1.113q-2.164-1.129-2.164-2.572a2.25,2.25,0,0,1,.627-1.584,2.239,2.239,0,0,1,1.725-.674,3.112,3.112,0,0,1,2.807,1.568,7.248,7.248,0,0,1,.847,2.368h.486l-.11-4.375h-.376a.656.656,0,0,1-.219.251.8.8,0,0,1-.408.078,8.433,8.433,0,0,1-1.122-.314,6.122,6.122,0,0,0-1.827-.314,4.534,4.534,0,0,0-3.152,1.129,3.707,3.707,0,0,0-1.254,2.885,3.661,3.661,0,0,0,.91,2.478,10.009,10.009,0,0,0,2.839,2.086l1.756,1a4.021,4.021,0,0,1,1.379,1.192,2.319,2.319,0,0,1,.393,1.27,2.226,2.226,0,0,1-.681,1.686,2.571,2.571,0,0,1-1.854.651,3.547,3.547,0,0,1-3.207-1.756,8.207,8.207,0,0,1-.97-2.744h-.518Z" transform="translate(0 36.842)" fill="#cd5851"/>
        </g>
      </g>
    </g>
    <text id="בנייני_בוטיק_מדורגים_מול_נוף_מרהיב" data-name="בנייני בוטיק מדורגים מול נוף מרהיב" transform="translate(10713.019 -98.413)" fill="#707070" font-size="10.5" font-family="SegoeUI, Segoe UI"><tspan x="6.208" y="11">בנייני בוטיק מדורגים מול נוף</tspan><tspan y="11"> </tspan></text>
  </g>
</svg>
